<svg xmlns="http://www.w3.org/2000/svg" version="1.1" xmlns:xlink="http://www.w3.org/1999/xlink" xmlns:svgjs="http://svgjs.dev/svgjs" viewBox="0 0 7.736111435062992 3.1437657011660174"><g transform="matrix(0.7761575462749378,0,0,0.7761575462749378,4.18881264950715,1.1579968390318982)"><g transform="matrix(1,0,0,1,0,0)" clip-path="url(#SvgjsClipPath31058)"><g clip-path="url(#SvgjsClipPath3105643945f81-3ac6-4a62-906a-0521b57ec823)"><path d=" M -3.512091684511416 -0.2432580664407084 C -3.512091684511416 -0.1205812075598292 -3.5117986758678676 0.05408710503229319 -3.509442886373738 0.15365144211006776 C -3.5081184873048987 0.20932308438427993 -3.5240229964767105 0.26337731894610406 -3.554062242613301 0.3088757011163128 C -3.5240229964767105 0.35438580363226335 -3.508106766959157 0.40858068234299083 -3.509442886373738 0.464252324617203 C -3.5117986758678676 0.5638166616949776 -3.512091684511416 0.7383326097924545 -3.512091684511416 0.861009468673334 C -3.512091684511416 0.9425947953829739 -3.4863186442248915 0.9730911350035001 -3.4642257925013356 0.9744155340723395 L -3.416652909134804 0.9744155340723395 L -3.416652909134804 1.2016613176628015 L -3.4603932394437216 1.202985716731641 C -3.461424629869012 1.202985716731641 -3.4629013934324964 1.2031380812262862 -3.4646594452937873 1.2031380812262862 C -3.489401095155021 1.2031380812262862 -3.5726155499227907 1.1975357559616386 -3.6447777186559116 1.1274363680790997 C -3.708395755343158 1.0658693918966924 -3.7408025113196204 0.9761853062793726 -3.7408025113196204 0.8610094686733343 C -3.7408025113196204 0.7742671898372411 -3.7399234853889753 0.6876655551500512 -3.739185103607233 0.6112254602211227 C -3.738599086320136 0.5526120111656843 -3.7381537131819425 0.5004681929597958 -3.7381537131819425 0.46026740706494373 C -3.7381537131819425 0.4274269982960299 -3.7871916397662164 0.3751425359412385 -3.8279901632939075 0.3751425359412385 L -3.8279901632939075 0.2425971459456463 C -3.7871916397662164 0.2425971459456463 -3.7381537131819425 0.1904650480854999 -3.7381537131819425 0.15762463931658577 C -3.7381537131819425 0.11742385342173389 -3.738599086320136 0.0652800352158458 -3.739185103607233 0.006514221665761766 C -3.7399234853889753 -0.0699258732631668 -3.7408025113196204 -0.15651578760461488 -3.7408025113196204 -0.24326978678644995 C -3.7408025113196204 -0.35843390404674613 -3.7084074756889 -0.4479773455151628 -3.644625354161266 -0.5096966861922155 C -3.567458597796337 -0.5846600175576598 -3.477469783189727 -0.5856914079829505 -3.4603815190979796 -0.5852460348447568 L -3.416641188789062 -0.5839216357759176 L -3.416641188789062 -0.3566758521854553 L -3.4643547163044968 -0.3566758521854553 C -3.4864475680280527 -0.3550584444730678 -3.512068243819932 -0.32442146070363825 -3.512068243819932 -0.24326978678645012 Z" fill="#ffe398" transform="matrix(1,0,0,1,0,0)" fill-rule="nonzero"></path></g><g clip-path="url(#SvgjsClipPath3105643945f81-3ac6-4a62-906a-0521b57ec823)"><path d=" M -0.7158984787824911 -0.2432580664407084 C -0.7158984787824911 -0.1205812075598292 -0.7161914874260393 0.05408710503229319 -0.7185472769201691 0.15365144211006776 C -0.7198716759890083 0.20932308438427993 -0.7039671668171965 0.26337731894610406 -0.6739279206806059 0.3088757011163128 C -0.7039671668171965 0.35438580363226335 -0.7198833963347502 0.40858068234299083 -0.7185472769201691 0.464252324617203 C -0.7161914874260393 0.5638166616949776 -0.7158984787824911 0.7383326097924545 -0.7158984787824911 0.861009468673334 C -0.7158984787824911 0.9425947953829739 -0.7416715190690151 0.9730911350035001 -0.7637643707925714 0.9744155340723395 L -0.8113372541591031 0.9744155340723395 C -0.8113372541591031 0.9744155340723395 -0.8113372541591031 1.2016613176628015 -0.8113372541591031 1.2016613176628015 L -0.767596923850185 1.202985716731641 C -0.7665655334248949 1.202985716731641 -0.7650887698614106 1.2031380812262862 -0.7633307180001192 1.2031380812262862 C -0.7385890681388858 1.2031380812262862 -0.6553746133711158 1.1975357559616386 -0.5832124446379958 1.1274363680790997 C -0.5195944079507488 1.0658693918966924 -0.4871876519742866 0.9761853062793726 -0.4871876519742866 0.8610094686733343 C -0.4871876519742866 0.7742671898372411 -0.4880666779049325 0.6876655551500512 -0.4888050596866744 0.6112254602211227 C -0.4893910769737717 0.5526120111656843 -0.4898364501119654 0.5004681929597958 -0.4898364501119654 0.46026740706494373 C -0.4898364501119654 0.4274269982960299 -0.440798523527691 0.3751425359412385 -0.3999999999999999 0.3751425359412385 L -0.3999999999999999 0.2425971459456463 C -0.440798523527691 0.2425971459456463 -0.4898364501119654 0.1904650480854999 -0.4898364501119654 0.15762463931658577 C -0.4898364501119654 0.11742385342173389 -0.4893910769737717 0.0652800352158458 -0.4888050596866744 0.006514221665761766 C -0.4880666779049325 -0.0699258732631668 -0.4871876519742866 -0.15651578760461488 -0.4871876519742866 -0.24326978678644995 C -0.4871876519742866 -0.35843390404674613 -0.5195826876050069 -0.4479773455151628 -0.5833648091326409 -0.5096966861922155 C -0.6605315654975703 -0.5846600175576598 -0.7505203801041804 -0.5856914079829505 -0.7676086441959278 -0.5852460348447568 L -0.8113489745048459 -0.5839216357759176 L -0.8113489745048459 -0.3566758521854553 C -0.8113489745048459 -0.3566758521854553 -0.7636354469894102 -0.3566758521854553 -0.7636354469894102 -0.3566758521854553 C -0.7415425952658548 -0.3550584444730678 -0.7159219194739754 -0.32442146070363825 -0.7159219194739754 -0.24326978678645012 Z" fill="#ffe398" transform="matrix(1,0,0,1,0,0)" fill-rule="nonzero"></path></g><g clip-path="url(#SvgjsClipPath3105643945f81-3ac6-4a62-906a-0521b57ec823)"><path d=" M -3.117033990587866 -0.47366834338149433 L -1.1108506895943635 -0.47366834338149433 L -1.1108506895943635 1.0633026361792077 L -3.117033990587866 1.0633026361792077 Z" fill="#8f8f8f" transform="matrix(1,0,0,1,0,0)" fill-rule="nonzero"></path></g><g clip-path="url(#SvgjsClipPath3105643945f81-3ac6-4a62-906a-0521b57ec823)"><path d=" M -0.9747540348389641 1.2032084033007377 L -0.9747540348389641 -0.5853046365734668 L -3.253259569146427 -0.5853046365734668 L -3.253259569146427 1.2032084033007377 L -2.307755837452695 1.2032084033007377 L -2.307755837452695 1.4578446348901122 L -2.5076111730442445 1.4578446348901122 L -2.655029681786358 1.6518046365734667 L -1.5729956425447744 1.6518046365734667 L -1.7204141512868873 1.4578446348901122 L -1.9201171223837923 1.4578446348901122 L -1.9201171223837923 1.2032084033007377 L -0.9747540348389641 1.2032084033007377 Z M -3.161207973689235 1.1074766192805772 L -3.161207973689235 -0.5178540468286059 L -1.0666532658015107 -0.5178540468286059 L -1.0666532658015107 1.1074766192805772 L -3.161207973689235 1.1074766192805772 Z" fill="#8f8f8f" transform="matrix(1,0,0,1,0,0)" fill-rule="nonzero"></path></g></g><g><path d=" M 0.648 1.038 L 0.5385 0.714 L 0.2415 0.714 L 0.126 1.038 L 0.23850000000000002 1.038 L 0.23850000000000002 1.0665 L 0.009000000000000001 1.0665 L 0.009000000000000001 1.038 L 0.0795 1.038 L 0.462 0.007500000000000062 L 0.585 0.007500000000000062 L 0.963 1.038 L 1.032 1.038 L 1.032 1.0665 L 0.5415 1.0665 L 0.5415 1.038 L 0.648 1.038 M 0.396 0.28800000000000003 L 0.255 0.681 L 0.5265 0.681 L 0.396 0.28800000000000003 M 1.550972900390625 1.0515 Q 1.624472900390625 1.0515 1.644722900390625 1.0245 Q 1.664972900390625 0.9975 1.664972900390625 0.933 L 1.664972900390625 0.642 L 1.568972900390625 0.642 L 1.568972900390625 0.609 L 2.000972900390625 0.609 L 2.000972900390625 0.642 L 1.9424729003906251 0.642 L 1.9424729003906251 1.065 L 1.9199729003906252 1.065 Q 1.892972900390625 1.0275 1.843472900390625 1.0275 Q 1.822472900390625 1.0275 1.718222900390625 1.0545 Q 1.6139729003906251 1.0815 1.540472900390625 1.0815 Q 1.295972900390625 1.0815 1.161722900390625 0.9495 Q 1.027472900390625 0.8175 1.027472900390625 0.55275 Q 1.027472900390625 0.28800000000000003 1.167722900390625 0.14400000000000002 Q 1.307972900390625 0 1.544972900390625 0 Q 1.636472900390625 0 1.728722900390625 0.023249999999999993 Q 1.820972900390625 0.046499999999999986 1.835972900390625 0.046499999999999986 Q 1.850972900390625 0.046499999999999986 1.858472900390625 0.03974999999999995 Q 1.865972900390625 0.03299999999999992 1.874972900390625 0.01649999999999996 L 1.891472900390625 0.01649999999999996 L 1.903472900390625 0.34199999999999997 L 1.8764729003906249 0.34199999999999997 Q 1.802972900390625 0.1965 1.728722900390625 0.11324999999999996 Q 1.654472900390625 0.030000000000000027 1.562972900390625 0.030000000000000027 Q 1.333472900390625 0.030000000000000027 1.333472900390625 0.47850000000000004 L 1.333472900390625 0.597 Q 1.333472900390625 0.8220000000000001 1.389722900390625 0.93675 Q 1.445972900390625 1.0515 1.550972900390625 1.0515 M 2.073006591796875 0.01649999999999996 L 2.514006591796875 0.01649999999999996 Q 2.740506591796875 0.01649999999999996 2.851506591796875 0.08174999999999999 Q 2.962506591796875 0.14700000000000002 2.962506591796875 0.31499999999999995 Q 2.962506591796875 0.501 2.827506591796875 0.5715 Q 2.701506591796875 0.636 2.475006591796875 0.636 L 2.463006591796875 0.636 L 2.463006591796875 1.038 L 2.650506591796875 1.038 L 2.650506591796875 1.0665 L 2.073006591796875 1.0665 L 2.073006591796875 1.038 L 2.170506591796875 1.038 L 2.170506591796875 0.04499999999999993 L 2.073006591796875 0.04499999999999993 L 2.073006591796875 0.01649999999999996 M 2.463006591796875 0.04499999999999993 L 2.463006591796875 0.6074999999999999 L 2.494506591796875 0.6074999999999999 Q 2.584506591796875 0.6074999999999999 2.6190065917968752 0.546 Q 2.6535065917968748 0.48450000000000004 2.6535065917968748 0.34650000000000003 L 2.6535065917968748 0.27449999999999997 Q 2.6535065917968748 0.14700000000000002 2.621256591796875 0.09599999999999997 Q 2.589006591796875 0.04499999999999993 2.503506591796875 0.04499999999999993 L 2.463006591796875 0.04499999999999993" fill="#ffffff" fill-rule="nonzero"></path></g><g></g></g><defs><clipPath id="SvgjsClipPath31058"><path d=" M -3.8279901632939075 -0.5853046365734667 h 3.4279901632939076 v 2.2371092731469333 h -3.4279901632939076 Z"></path></clipPath><clipPath id="SvgjsClipPath3105643945f81-3ac6-4a62-906a-0521b57ec823"><path d=" M -3.8279901632939075 -0.5853046365734668 L -0.3999999999999999 -0.5853046365734668 L -0.3999999999999999 1.6518046365734667 L -3.8279901632939075 1.6518046365734667 Z"></path></clipPath></defs></svg>